<svg width="100px" height="100px" viewBox="0 0 100 100" version="1.1" xmlns="http://www.w3.org/2000/svg">
    <rect x="15" y="10" width="70" height="80" rx="10" ry="10" fill="#E0E0E0"/>
    
    <rect x="25" y="20" width="50" height="20" rx="4" ry="4" fill="#4A4A4A"/>
    <path d="M65 30 H70 M65 34 H70" stroke="#81C784" stroke-width="2" stroke-linecap="round"/>

    <g fill="#BDBDBD">
        <rect x="25" y="48" width="10" height="10" rx="2"/>
        <rect x="38.3" y="48" width="10" height="10" rx="2"/>
        <rect x="51.6" y="48" width="10" height="10" rx="2"/>
        <rect x="65" y="48" width="10" height="10" rx="2" fill="#FFB74D"/> <rect x="25" y="61.3" width="10" height="10" rx="2"/>
        <rect x="38.3" y="61.3" width="10" height="10" rx="2"/>
        <rect x="51.6" y="61.3" width="10" height="10" rx="2"/>
        <rect x="65" y="61.3" width="10" height="10" rx="2" fill="#FFB74D"/>
        
        <rect x="25" y="74.6" width="10" height="10" rx="2"/>
        <rect x="38.3" y="74.6" width="10" height="10" rx="2"/>
        <rect x="51.6" y="74.6" width="23.3" height="10" rx="2" fill="#64B5F6"/> </g>
</svg>